Motion_mu03
version=1
nRows=10
nColumns=43
inDegrees=yes
endheader
time	pelvis_tilt	pelvis_list	pelvis_rotation	pelvis_tx	pelvis_ty	pelvis_tz	hip_flexion_r	hip_adduction_r	hip_rotation_r	knee_angle_r	ankle_angle_r	subtalar_angle_r	mtp_angle_r	hip_flexion_l	hip_adduction_l	hip_rotation_l	knee_angle_l	ankle_angle_l	subtalar_angle_l	mtp_angle_l	lumbar_extension	lumbar_bending	lumbar_rotation	neck_flexion	neck_lateral_bending	neck_rotation	arm_flex_r	arm_add_r	arm_rot_r	elbow_flex_r	pro_sup_r	wrist_flex_r	wrist_dev_r	hand_finger_flex_r	arm_flex_l	arm_add_l	arm_rot_l	elbow_flex_l	pro_sup_l	wrist_flex_l	wrist_dev_l	hand_finger_flex_l
      2.75000000	     -4.28635184	     39.40101679	    -91.23646191	      0.00205328	      1.94857637	      1.02288542	     48.34897195	    -10.78724268	    -10.77983502	    -73.68399621	     -7.37948903	     -7.29917085	    -14.58279332	     46.20216774	     -6.96856989	     -0.63203691	    -67.49244252	     24.83369055	     14.47324410	    -30.40397630	    -13.25618042	      4.41429189	      6.21769374	     10.08782921	     -5.12361291	     14.32914680	   -206.14580203	   -158.50095426	   -189.06562196	     89.68604036	    175.40132394	    -49.01276889	    -22.54332909	     89.37051768	   -197.96605621	    206.59052965	   -168.06850392	     84.91837469	    160.74913601	    -75.80569047	     -5.21775348	     90.00021046
      2.75250000	     -4.28415540	     39.46415936	    -91.24265318	      0.00227455	      1.94978881	      1.02359031	     48.22720006	    -10.77459719	    -10.93285124	    -73.44044766	     -7.43907100	     -7.39353938	    -14.57000068	     46.13701088	     -6.98965100	     -0.59169273	    -67.26429374	     24.78649811	     14.52338406	    -30.42076171	    -12.94439765	      4.44540786	      6.26708434	      9.42910996	     -5.17853875	     14.17734950	   -205.88036998	   -158.59531719	   -189.00761628	     89.03071200	    175.51056649	    -49.23481302	    -22.65909460	     89.27285429	   -197.62315449	    206.40096575	   -167.80690242	     84.25293549	    160.55672726	    -76.08643315	     -5.46677096	     90.00021046
      2.75500000	     -4.25392497	     39.49127568	    -91.25196380	      0.00262659	      1.95106917	      1.02428562	     48.04920309	    -10.74314281	    -10.97291575	    -73.11800593	     -7.46508561	     -7.42016297	    -14.56607245	     46.00000696	     -6.98881239	     -0.61852896	    -66.94437885	     24.75130212	     14.55047143	    -30.42831954	    -12.74022494	      4.46787532	      6.25887676	      9.37816901	     -5.19754885	     14.11181244	   -205.62318745	   -158.63815240	   -188.92563182	     88.49613515	    175.57353591	    -49.28697144	    -22.70740673	     89.23086055	   -197.32610343	    206.13949255	   -167.69370414	     83.63723675	    160.47392984	    -76.14121925	     -5.56268670	     90.00021046
      2.75750000	     -4.21804895	     39.50770152	    -91.27671742	      0.00286951	      1.95233814	      1.02501244	     47.86265365	    -10.71491466	    -11.03637765	    -72.81185987	     -7.49031640	     -7.44136908	    -14.56387439	     45.86213160	     -6.99558194	     -0.63073504	    -66.65918421	     24.71591200	     14.57833178	    -30.43490053	    -12.53004058	      4.46171455	      6.26139793	      9.16769112	     -5.22402571	     14.04769790	   -205.33292103	   -158.71842971	   -188.84615801	     87.91730886	    175.64140669	    -49.32654010	    -22.75229053	     89.18970890	   -197.06786069	    205.88602903	   -167.60263925	     83.01635928	    160.41559820	    -76.17792576	     -5.64826670	     90.00021046
      2.76000000	     -4.18327517	     39.56766562	    -91.31861965	      0.00306549	      1.95353808	      1.02572657	     47.75761839	    -10.69810019	    -11.13670389	    -72.56992278	     -7.54615168	     -7.50762325	    -14.55643338	     45.77666834	     -7.01421737	     -0.63305304	    -66.39661760	     24.65935735	     14.62614107	    -30.44705906	    -12.21864059	      4.45232776	      6.29152252	      8.53819415	     -5.25619218	     13.90213112	   -205.02921848	   -158.77636243	   -188.70492726	     87.24136031	    175.71605982	    -49.49683950	    -22.85654333	     89.09060957	   -196.77520654	    205.65414476	   -167.45507985	     82.36802116	    160.30540330	    -76.42285761	     -5.92167514	     90.00021046
      2.76250000	     -4.13081715	     39.60038430	    -91.36013336	      0.00334566	      1.95476765	      1.02645718	     47.58633248	    -10.66079475	    -11.16201992	    -72.23567277	     -7.56630570	     -7.51427719	    -14.55425196	     45.65161193	     -7.01046085	     -0.66197418	    -66.08442370	     24.62622252	     14.63793803	    -30.45238318	    -12.00429744	      4.44511847	      6.28167072	      8.47554085	     -5.26603919	     13.84445136	   -204.76436140	   -158.86307803	   -188.64135810	     86.70094140	    175.75886771	    -49.52336946	    -22.89244087	     89.05407559	   -196.54334315	    205.36586471	   -167.41103632	     81.73562697	    160.26021732	    -76.45454050	     -6.00678372	     90.00021046
      2.76500000	     -4.06920929	     39.68752021	    -91.43849343	      0.00352180	      1.95593113	      1.02717914	     47.51553506	    -10.64584643	    -11.23450822	    -71.98055286	     -7.62616586	     -7.54348203	    -14.54505680	     45.58773326	     -7.02239752	     -0.69771979	    -65.80523236	     24.56076172	     14.62930281	    -30.46450179	    -11.64957988	      4.41083135	      6.30003008	      7.80882185	     -5.29278597	     13.68854585	   -204.43539502	   -158.92565388	   -188.47732585	     85.98721651	    175.79488059	    -49.68891595	    -23.00794687	     88.95198248	   -196.28578120	    205.11636632	   -167.30669173	     81.04297854	    160.17935682	    -76.75366330	     -6.35398304	     90.00021046
      2.76750000	     -4.01942441	     39.72925251	    -91.48082742	      0.00380292	      1.95713501	      1.02790474	     47.35199642	    -10.61227512	    -11.26509700	    -71.64375276	     -7.63949649	     -7.53225303	    -14.54225420	     45.46526848	     -7.01722293	     -0.73331996	    -65.48035232	     24.52741595	     14.61672997	    -30.46916693	    -11.41977521	      4.40096787	      6.29987808	      7.76789047	     -5.30208598	     13.63746023	   -204.16920067	   -159.00682424	   -188.41702972	     85.43851119	    175.82907308	    -49.69770344	    -23.04485068	     88.92246897	   -196.05370472	    204.81693405	   -167.28937255	     80.41150458	    160.14461176	    -76.78450160	     -6.44284003	     90.00021046
      2.77000000	     -3.96092230	     39.84063949	    -91.56505523	      0.00395272	      1.95826431	      1.02861272	     47.30538325	    -10.59317011	    -11.34626878	    -71.37913945	     -7.67805515	     -7.50794506	    -14.53236227	     45.42474835	     -7.03169694	     -0.77365645	    -65.17819034	     24.46047455	     14.53650782	    -30.47857058	    -11.03225048	      4.36843263	      6.31408349	      7.09625492	     -5.32512213	     13.48986834	   -203.83605176	   -159.06834507	   -188.23380503	     84.71834739	    175.84941160	    -49.80791925	    -23.16932773	     88.84420412	   -195.81021771	    204.56020771	   -167.20797380	     79.70578430	    160.09908849	    -77.05979300	     -6.78501173	     90.00021046
      2.77250000	     -3.91567547	     39.89568987	    -91.60888208	      0.00421609	      1.95941991	      1.02934966	     47.15405345	    -10.55780529	    -11.38650948	    -71.03579713	     -7.68473798	     -7.48143492	    -14.52924762	     45.32021825	     -7.02884832	     -0.80928458	    -64.84522631	     24.42495205	     14.50182045	    -30.48232210	    -10.77826633	      4.36529961	      6.31219011	      7.02535341	     -5.33072605	     13.43428955	   -203.57343168	   -159.16747515	   -188.18482577	     84.16025802	    175.87692595	    -49.80658189	    -23.21222668	     88.81951425	   -195.59766610	    204.26415038	   -167.20020176	     79.06499858	    160.06989994	    -77.09630525	     -6.87947336	     90.00021046
